<svg xmlns="http://www.w3.org/2000/svg" width="16.541" height="14.769" viewBox="0 0 16.541 14.769">
  <path id="add-image" d="M3.181,5A1.181,1.181,0,0,0,2,6.181v9.452a1.181,1.181,0,0,0,1.181,1.181H9.225a5.148,5.148,0,0,1-.1-1.772H3.772V10.907L5.124,9.555a1.429,1.429,0,0,1,2.021,0l2.96,2.959a5.309,5.309,0,0,1,7.254-1.3V6.181A1.181,1.181,0,0,0,16.178,5ZM14.406,6.772a1.181,1.181,0,1,1-1.181,1.181A1.181,1.181,0,0,1,14.406,6.772Zm0,4.726a4.135,4.135,0,1,0,4.135,4.135A4.135,4.135,0,0,0,14.406,11.5Zm0,1.772a.591.591,0,0,1,.591.591v1.181h1.181a.591.591,0,1,1,0,1.181H15v1.181a.591.591,0,1,1-1.181,0V16.224H12.633a.591.591,0,0,1,0-1.181h1.181V13.861A.591.591,0,0,1,14.406,13.27Z" transform="translate(-2 -5)" fill="#2d2d2d"/>
</svg>
