<svg xmlns="http://www.w3.org/2000/svg" width="30.507" height="30.482" viewBox="0 0 30.507 30.482">
  <g id="_012-metaverse" data-name="012-metaverse" transform="translate(0 -0.209)" opacity="0.5">
    <path id="Path_1324" data-name="Path 1324" d="M275.158,378.259a17.557,17.557,0,0,0-4.109-.706v6.118A16.871,16.871,0,0,0,275.158,378.259Z" transform="translate(-254.881 -354.836)" fill="#ababab"/>
    <path id="Path_1325" data-name="Path 1325" d="M271.1,28.65v6.234a17.706,17.706,0,0,0,4.108-.7,15.9,15.9,0,0,0-1.9-3.225A14.206,14.206,0,0,0,271.1,28.65Z" transform="translate(-254.932 -26.745)" fill="#ababab"/>
    <path id="Path_1326" data-name="Path 1326" d="M288.369,399.876c-.317-.155-.672-.316-1.06-.475a18.8,18.8,0,0,1-5.142,6.606,15.98,15.98,0,0,0,9.071-4.334A14.744,14.744,0,0,0,288.369,399.876Z" transform="translate(-265.337 -375.381)" fill="#ababab"/>
    <path id="Path_1327" data-name="Path 1327" d="M383.606,95.465a17.225,17.225,0,0,1-4.558,2.635,22.306,22.306,0,0,1,1.043,6.036h6.854A15.207,15.207,0,0,0,383.606,95.465Z" transform="translate(-356.439 -89.574)" fill="#ababab"/>
    <path id="Path_1328" data-name="Path 1328" d="M294.15,5.717A15.213,15.213,0,0,0,285.2,1.436a15.783,15.783,0,0,1,2.724,2.76A17.692,17.692,0,0,1,290.157,8c.4-.163.768-.328,1.1-.487A15.115,15.115,0,0,0,294.15,5.717Z" transform="translate(-268.184 -1.154)" fill="#ababab"/>
    <path id="Path_1329" data-name="Path 1329" d="M8.649,304.374a4.117,4.117,0,0,1,4.113-4.112,1.356,1.356,0,1,0,0-2.711H3.539a15.325,15.325,0,0,0,5.11,8.964v-2.141Z" transform="translate(-3.328 -279.606)" fill="#ababab"/>
    <path id="Path_1330" data-name="Path 1330" d="M271.069,270.848v4.573a19.266,19.266,0,0,1,4.78.824,18.547,18.547,0,0,0,.919-5.4Z" transform="translate(-254.9 -254.496)" fill="#ababab"/>
    <path id="Path_1331" data-name="Path 1331" d="M4.435,4.753H7.353a4.215,4.215,0,1,1,0,8.43H.176A14.735,14.735,0,0,0,0,15.457c0,.235.006.469.017.7l9.417,0a3.145,3.145,0,1,1,0,6.29,2.326,2.326,0,0,0-2.324,2.322v3.487a15.113,15.113,0,0,0,7.135,2.428l.132.008,0-30.482A15.208,15.208,0,0,0,4.435,4.753Z" transform="translate(0)" fill="#ababab"/>
    <path id="Path_1332" data-name="Path 1332" d="M380.48,270.848a20.682,20.682,0,0,1-1.023,6,16.831,16.831,0,0,1,4.477,2.622l.02.02a14.141,14.141,0,0,0,1.947-2.966,12.332,12.332,0,0,0,.729-1.9,15.236,15.236,0,0,0,.7-3.771h-6.85Z" transform="translate(-356.823 -254.496)" fill="#ababab"/>
    <path id="Path_1333" data-name="Path 1333" d="M271.086,150.423v4.631h5.692a20.509,20.509,0,0,0-.94-5.442A19.417,19.417,0,0,1,271.086,150.423Z" transform="translate(-254.915 -140.492)" fill="#ababab"/>
    <path id="Path_1334" data-name="Path 1334" d="M16.213,111.235a2.426,2.426,0,1,0,0-4.852H11.779a15.347,15.347,0,0,0-2.357,4.852Z" transform="translate(-8.86 -99.841)" fill="#ababab"/>
  </g>
</svg>
