<svg xmlns="http://www.w3.org/2000/svg" width="31.834" height="28.297" viewBox="0 0 31.834 28.297">
  <g id="calendar" transform="translate(-6 -8)" opacity="0.5">
    <path id="Path_944" data-name="Path 944" d="M6,33.264a4.426,4.426,0,0,0,4.421,4.421H33.413a4.426,4.426,0,0,0,4.421-4.421V20H6Z" transform="translate(0 -1.389)" fill="#ababab"/>
    <path id="Path_945" data-name="Path 945" d="M33.413,9.769H30.76v2.653a.884.884,0,1,1-1.769,0V8.884a.884.884,0,1,0-1.769,0v.884H18.38v2.653a.884.884,0,1,1-1.769,0V8.884a.884.884,0,1,0-1.769,0v.884H10.421A4.426,4.426,0,0,0,6,14.19v2.653H37.834V14.19a4.426,4.426,0,0,0-4.421-4.421Z" fill="#ababab"/>
  </g>
</svg>
