<svg xmlns="http://www.w3.org/2000/svg" width="28.297" height="28.297" viewBox="0 0 28.297 28.297">
  <g id="merketplace" transform="translate(-2.25 -2.25)" opacity="0.5">
    <path id="Path_1323" data-name="Path 1323" d="M20.752,2.25H12.045a9.81,9.81,0,0,0-9.8,9.8v8.707a9.81,9.81,0,0,0,9.8,9.8h8.707a9.81,9.81,0,0,0,9.8-9.8V12.045A9.81,9.81,0,0,0,20.752,2.25ZM16.4,13.134a5.444,5.444,0,0,1-5.442-5.442,1.088,1.088,0,1,1,2.177,0,3.265,3.265,0,1,0,6.53,0,1.088,1.088,0,0,1,2.177,0A5.444,5.444,0,0,1,16.4,13.134Z" transform="translate(0 0)" fill="#ababab"/>
  </g>
</svg>
